<svg width="151" height="151" viewBox="0 0 151 151" fill="none" xmlns="http://www.w3.org/2000/svg">
<g clip-path="url(#clip0_373:166)">
<path d="M44.528 5.45584C53.3949 4.81515 62.4176 7.37726 69.2218 14.4248C77.5101 22.7537 80.0884 34.9268 77.2774 45.8185L136.477 106.043C142.665 112.45 142.665 122.701 136.477 128.467C130.283 134.874 120.247 134.874 114.059 128.467L54.8607 68.2424C44.2916 71.4458 32.6767 68.8836 24.3872 59.914C17.5824 53.5072 14.7412 43.8967 15.455 34.9272L18.7822 31.7237L41.2002 54.7882L58.0131 49.0219L63.6187 31.7237L41.2002 8.65926L44.528 5.45584ZM119.663 111.809C116.569 115.013 116.569 120.138 119.663 122.701C122.757 125.904 127.775 125.904 130.869 122.701C133.97 120.138 133.97 115.013 130.869 111.809C127.775 108.606 122.757 108.606 119.663 111.809Z" fill="#7F8C8D"/>
<path d="M46.2291 0.330086C55.0959 -0.310599 64.1218 2.89282 70.926 9.94035C79.2143 18.2692 81.7926 29.8019 78.9816 40.6935L138.175 100.917C144.37 107.324 144.37 117.576 138.175 123.982C131.988 130.389 121.951 130.389 115.757 123.982L56.5618 63.758C45.9926 66.3207 34.3784 63.7577 26.0882 55.4288C19.2834 48.3812 16.4423 39.4115 17.156 30.4419L20.4839 26.598L42.9012 49.6624L59.7148 43.8969L65.3166 26.598L42.9012 4.17403L46.2291 0.330086ZM121.364 106.684C118.264 109.887 118.264 115.013 121.364 118.216C124.458 121.42 129.477 121.42 132.57 118.216C135.664 115.013 135.664 109.887 132.57 106.684C129.477 103.48 124.458 103.48 121.364 106.684Z" fill="#95A5A6"/>
<path d="M137.742 9.29956L116.518 17.628L122.807 24.0348L78.1961 69.524L65.2292 56.7103L54.0262 68.2422C56.1479 74.0083 55.5373 79.7747 51.8648 83.6188C51.4051 83.6188 51.0083 84.2593 50.4889 84.2593C48.9312 85.5406 47.1245 86.1815 45.1827 86.8222C42.5943 86.8222 39.7091 86.8225 36.9296 85.5411L5.68323 116.934L18.6533 130.389L37.9119 150.25L69.1595 118.216C67.034 112.45 67.449 106.683 71.1215 102.839C74.794 98.9952 80.4977 98.3542 86.0568 100.917L97.4578 89.3851L84.6859 75.9309L129.29 30.4417L135.774 37.4898L144.226 15.7064L137.742 9.29956Z" fill="#7F8C8D"/>
<path d="M65.9204 50.3035L54.5891 61.8353C56.7115 66.9608 56.1606 73.3679 52.4875 76.5713C48.8144 80.4155 43.0767 81.0563 37.5177 79.1342L6.32349 110.527L38.4924 143.203L69.6872 111.809C67.568 106.043 68.1151 100.276 71.7876 96.4324C75.4601 92.5883 81.2015 91.9473 86.7606 94.51L98.0862 82.9782L65.9204 50.3035Z" fill="#F39C12"/>
<path d="M85.2204 69.5239L129.919 24.0347L136.352 31.0828L144.817 9.29944L138.384 2.25208L117.053 11.221L123.486 17.6279L78.7872 63.117L85.2204 69.5239Z" fill="#BDC3C7"/>
<path d="M19.1911 123.982L78.7867 63.1172L65.9204 50.3035L54.5891 61.8353C56.7115 66.9608 56.1606 73.3679 52.4875 76.5714C48.8144 80.4155 43.0767 81.0563 37.5177 79.1343L6.32349 110.527L19.1911 123.982Z" fill="#F1C40F"/>
</g>
<defs>
<clipPath id="clip0_373:166">
<rect width="150" height="150" fill="white" transform="translate(0.25 0.25)"/>
</clipPath>
</defs>
</svg>
