<svg width="150" height="150" viewBox="0 0 150 150" fill="none" xmlns="http://www.w3.org/2000/svg">
<g clip-path="url(#clip0_837_74)">
<path d="M44.0756 8.75051C52.8881 8.12551 61.8556 10.6249 68.6181 17.4999C76.8556 25.6249 79.4181 37.5 76.6244 48.125L135.462 106.875C141.612 113.125 141.612 123.125 135.462 128.75C129.306 135 119.331 135 113.181 128.75L54.345 70C43.8406 73.125 32.2969 70.6255 24.0581 61.8755C17.295 55.6255 14.4713 46.2503 15.1806 37.5003L18.4875 34.3753L40.7681 56.8752L57.4781 51.25L63.0494 34.3753L40.7681 11.8755L44.0756 8.75051V8.75051ZM118.751 112.5C115.676 115.625 115.676 120.625 118.751 123.125C121.826 126.25 126.813 126.25 129.888 123.125C132.969 120.625 132.969 115.625 129.888 112.5C126.813 109.375 121.826 109.375 118.751 112.5Z" fill="#7F8C8D"/>
<path d="M45.7661 3.75024C54.5786 3.12524 63.5492 6.25024 70.3117 13.1252C78.5492 21.2502 81.1117 32.5005 78.3179 43.1255L137.149 101.875C143.305 108.125 143.305 118.126 137.149 124.376C130.999 130.626 121.024 130.626 114.868 124.376L56.0354 65.6254C45.5311 68.1254 33.9879 65.6251 25.7486 57.5001C18.9854 50.6251 16.1617 41.8749 16.8711 33.1249L20.1786 29.3751L42.4586 51.8749L59.1692 46.2505L64.7367 29.3751L42.4586 7.50009L45.7661 3.75024V3.75024ZM120.441 107.5C117.36 110.625 117.36 115.625 120.441 118.75C123.516 121.875 128.504 121.875 131.579 118.75C134.654 115.625 134.654 110.625 131.579 107.5C128.504 104.375 123.516 104.375 120.441 107.5Z" fill="#95A5A6"/>
<path d="M136.719 12.5L115.625 20.6245L121.875 26.8746L77.5375 71.2502L64.65 58.7502L53.5156 69.9997C55.6244 75.6247 55.0175 81.2499 51.3675 84.9999C50.9106 84.9999 50.5162 85.6247 50 85.6247C48.4519 86.8747 46.6562 87.4999 44.7262 88.1249C42.1537 88.1249 39.2862 88.1252 36.5237 86.8752L5.46875 117.5L18.3594 130.625L37.5 150L68.5562 118.75C66.4437 113.125 66.8562 107.5 70.5062 103.75C74.1562 99.9999 79.825 99.3746 85.35 101.875L96.6812 90.6251L83.9875 77.5002L128.319 33.1246L134.762 40.0002L143.162 18.75L136.719 12.5V12.5Z" fill="#7F8C8D"/>
<path d="M65.3373 52.5002L54.0755 63.7498C56.1848 68.7498 55.6373 75.0001 51.9867 78.1251C48.3361 81.8751 42.6336 82.5002 37.1086 80.6252L6.10547 111.25L38.0773 143.125L69.0811 112.5C66.9748 106.875 67.5186 101.25 71.1686 97.4999C74.8186 93.7499 80.5248 93.1246 86.0498 95.6246L97.3061 84.3751L65.3373 52.5002V52.5002Z" fill="#F39C12"/>
<path d="M84.5187 71.2502L128.944 26.8746L135.337 33.7502L143.75 12.5001L137.356 5.62524L116.156 14.3746L122.55 20.6246L78.125 65.0002L84.5187 71.2502Z" fill="#BDC3C7"/>
<path d="M18.8942 124.375L78.1249 65.0002L65.3374 52.5002L54.0755 63.7498C56.1849 68.7498 55.6374 75.0001 51.9868 78.1251C48.3361 81.8751 42.6336 82.5003 37.1086 80.6253L6.10547 111.25L18.8942 124.375V124.375Z" fill="#F1C40F"/>
</g>
<defs>
<clipPath id="clip0_837_74">
<rect width="150" height="150" fill="white"/>
</clipPath>
</defs>
</svg>
