<svg width="150" height="150" viewBox="0 0 150 150" fill="none" xmlns="http://www.w3.org/2000/svg">
<g clip-path="url(#clip0_837_89)">
<path d="M31.25 25C24.3463 25 18.75 30.625 18.75 37.5V125C18.75 131.875 24.3463 137.5 31.25 137.5H68.75H81.25H118.75C125.656 137.5 131.25 131.875 131.25 125V37.5C131.25 30.625 125.656 25 118.75 25H81.25H68.75H31.25Z" fill="#BDC3C7"/>
<path d="M31.25 18.75C24.3463 18.75 18.75 24.3463 18.75 31.25V118.75C18.75 125.656 24.3463 131.25 31.25 131.25H68.75H81.25H118.75C125.656 131.25 131.25 125.656 131.25 118.75V31.25C131.25 24.3463 125.656 18.75 118.75 18.75H81.25H68.75H31.25Z" fill="#ECF0F1"/>
<path d="M31.25 18.75C24.3463 18.75 18.75 24.3463 18.75 31.25V50V56.25H131.25V50V31.25C131.25 24.3463 125.656 18.75 118.75 18.75H81.25H68.75H31.25Z" fill="#E74C3C"/>
<path d="M46.875 34.375C46.875 35.6061 46.6325 36.8252 46.1614 37.9626C45.6902 39.1 44.9997 40.1335 44.1291 41.0041C43.2586 41.8746 42.2251 42.5652 41.0877 43.0363C39.9502 43.5075 38.7311 43.7499 37.5 43.7499C36.2689 43.7499 35.0498 43.5075 33.9123 43.0363C32.7749 42.5652 31.7414 41.8746 30.8709 41.0041C30.0003 40.1335 29.3098 39.1 28.8386 37.9626C28.3675 36.8252 28.125 35.6061 28.125 34.375C28.125 33.1438 28.3675 31.9247 28.8386 30.7873C29.3098 29.6499 30.0003 28.6164 30.8709 27.7459C31.7414 26.8753 32.7749 26.1848 33.9123 25.7136C35.0498 25.2425 36.2689 25 37.5 25C38.7311 25 39.9502 25.2425 41.0877 25.7136C42.2251 26.1848 43.2586 26.8753 44.1291 27.7459C44.9997 28.6164 45.6902 29.6499 46.1614 30.7873C46.6325 31.9247 46.875 33.1438 46.875 34.375V34.375Z" fill="#C0392B"/>
<path d="M37.5 6.25C34.0481 6.25 31.25 9.04813 31.25 12.5V31.25C31.25 34.7019 34.0481 37.5 37.5 37.5C40.9519 37.5 43.75 34.7019 43.75 31.25V12.5C43.75 9.04813 40.9519 6.25 37.5 6.25Z" fill="#BDC3C7"/>
<path d="M121.875 34.375C121.875 35.6061 121.633 36.8252 121.161 37.9626C120.69 39.1 120 40.1335 119.129 41.0041C118.259 41.8746 117.225 42.5652 116.088 43.0363C114.95 43.5075 113.731 43.7499 112.5 43.7499C111.269 43.7499 110.05 43.5075 108.912 43.0363C107.775 42.5652 106.741 41.8746 105.871 41.0041C105 40.1335 104.31 39.1 103.839 37.9626C103.367 36.8252 103.125 35.6061 103.125 34.375C103.125 33.1438 103.367 31.9247 103.839 30.7873C104.31 29.6499 105 28.6164 105.871 27.7459C106.741 26.8753 107.775 26.1848 108.912 25.7136C110.05 25.2425 111.269 25 112.5 25C113.731 25 114.95 25.2425 116.088 25.7136C117.225 26.1848 118.259 26.8753 119.129 27.7459C120 28.6164 120.69 29.6499 121.161 30.7873C121.633 31.9247 121.875 33.1438 121.875 34.375V34.375Z" fill="#C0392B"/>
<path d="M112.5 6.25C109.05 6.25 106.25 8.75 106.25 12.5V31.25C106.25 34.375 109.05 37.5 112.5 37.5C115.95 37.5 118.75 34.375 118.75 31.25V12.5C118.75 8.75 115.95 6.25 112.5 6.25Z" fill="#BDC3C7"/>
<path d="M31.25 68.75V81.25H43.75V68.75H31.25ZM50 68.75V81.25H62.5V68.75H50ZM68.75 68.75V81.25H81.25V68.75H68.75ZM87.5 68.75V81.25H100V68.75H87.5ZM106.25 68.75V81.25H118.75V68.75H106.25Z" fill="#BDC3C7"/>
<path d="M31.25 87.5V100H43.75V87.5H31.25ZM50 87.5V100H62.5V87.5H50ZM68.75 87.5V100H81.25V87.5H68.75ZM87.5 87.5V100H100V87.5H87.5ZM106.25 87.5V100H118.75V87.5H106.25Z" fill="#BDC3C7"/>
<path d="M31.25 106.25V118.75H43.75V106.25H31.25ZM50 106.25V118.75H62.5V106.25H50ZM68.75 106.25V118.75H81.25V106.25H68.75ZM87.5 106.25V118.75H100V106.25H87.5ZM106.25 106.25V118.75H118.75V106.25H106.25Z" fill="#BDC3C7"/>
<path d="M146.56 115.927C146.56 124.131 143.301 132 137.499 137.801C131.698 143.602 123.83 146.861 115.626 146.861C107.421 146.861 99.5531 143.602 93.7518 137.801C87.9505 132 84.6914 124.131 84.6914 115.927C84.6914 107.723 87.9505 99.8548 93.7518 94.0536C99.5531 88.2523 107.421 84.9932 115.626 84.9932C123.83 84.9932 131.698 88.2523 137.499 94.0536C143.301 99.8548 146.56 107.723 146.56 115.927V115.927Z" fill="#34495E"/>
<path d="M115.625 87.5C113.9 87.5 112.5 88.9 112.5 90.625V93.75V112.5V115.625C112.5 117.35 113.9 118.75 115.625 118.75H118.75H131.25H134.375C136.1 118.75 137.5 117.35 137.5 115.625C137.5 113.9 136.1 112.5 134.375 112.5H131.25H118.75V93.75V90.625C118.75 88.9 117.35 87.5 115.625 87.5Z" fill="#BDC3C7"/>
<path d="M115.625 81.25C96.6375 81.25 81.25 96.25 81.25 115.625C81.25 134.375 96.6375 150 115.625 150C134.612 150 150 134.375 150 115.625C150 96.25 134.612 81.25 115.625 81.25ZM115.625 87.5C131.156 87.5 143.75 100 143.75 115.625C143.75 130.625 131.156 143.75 115.625 143.75C100.094 143.75 87.5 130.625 87.5 115.625C87.5 100 100.094 87.5 115.625 87.5Z" fill="#7F8C8D"/>
<path d="M118.75 115.625C118.75 117.35 117.35 118.75 115.625 118.75C113.9 118.75 112.5 117.35 112.5 115.625C112.5 113.9 113.9 112.5 115.625 112.5C117.35 112.5 118.75 113.9 118.75 115.625Z" fill="#95A5A6"/>
</g>
<defs>
<clipPath id="clip0_837_89">
<rect width="150" height="150" fill="white"/>
</clipPath>
</defs>
</svg>
