<svg width="150" height="150" viewBox="0 0 150 150" fill="none" xmlns="http://www.w3.org/2000/svg">
<g clip-path="url(#clip0_837_83)">
<path d="M137.5 12.5C144.406 12.5 150 18.125 150 25V43.75V56.25V75C150 81.875 144.406 87.5 137.5 87.5V112.5L107.031 87.5H93.75H56.25C49.3463 87.5 43.75 81.875 43.75 75V56.25V43.75V25C43.75 18.125 49.3463 12.5 56.25 12.5H93.75H100H137.5Z" fill="#7F8C8D"/>
<path d="M137.5 6.25C144.406 6.25 150 11.875 150 18.75V37.5V50V68.75C150 75.625 144.406 81.25 137.5 81.25V106.25L107.031 81.25H93.75H56.25C49.3463 81.25 43.75 75.625 43.75 68.75V50V37.5V18.75C43.75 11.875 49.3463 6.25 56.25 6.25H93.75H100H137.5Z" fill="#95A5A6"/>
<path d="M12.5 50C5.59625 50 0 55.625 0 62.5V81.25V93.75V112.5C0 119.375 5.59644 125 12.5 125V150L42.9688 125H56.25H93.75C100.656 125 106.25 119.375 106.25 112.5V93.75V81.25V62.5C106.25 55.625 100.656 50 93.75 50H56.25H50H12.5Z" fill="#BDC3C7"/>
<path d="M12.5 43.75C5.59625 43.75 0 49.375 0 56.25V75V87.5V106.25C0 113.125 5.59644 118.75 12.5 118.75V143.75L42.9688 118.75H56.25H93.75C100.656 118.75 106.25 113.125 106.25 106.25V87.5V75V56.25C106.25 49.375 100.656 43.75 93.75 43.75H56.25H50H12.5Z" fill="#ECF0F1"/>
</g>
<defs>
<clipPath id="clip0_837_83">
<rect width="150" height="150" fill="white"/>
</clipPath>
</defs>
</svg>
