<svg width="151" height="151" viewBox="0 0 151 151" fill="none" xmlns="http://www.w3.org/2000/svg">
<g clip-path="url(#clip0_373:143)">
<path d="M32 25.25C25.0963 25.25 19.5 30.875 19.5 37.75V125.25C19.5 132.125 25.0963 137.75 32 137.75H69.5H82H119.5C126.406 137.75 132 132.125 132 125.25V37.75C132 30.875 126.406 25.25 119.5 25.25H82H69.5H32Z" fill="#BDC3C7"/>
<path d="M32 19C25.0963 19 19.5 24.5963 19.5 31.5V119C19.5 125.906 25.0963 131.5 32 131.5H69.5H82H119.5C126.406 131.5 132 125.906 132 119V31.5C132 24.5963 126.406 19 119.5 19H82H69.5H32Z" fill="#ECF0F1"/>
<path d="M32 19C25.0963 19 19.5 24.5963 19.5 31.5V50.25V56.5H132V50.25V31.5C132 24.5963 126.406 19 119.5 19H82H69.5H32Z" fill="#E74C3C"/>
<path d="M47.625 34.625C47.625 35.8561 47.3825 37.0752 46.9114 38.2126C46.4402 39.3501 45.7497 40.3836 44.8791 41.2541C44.0086 42.1247 42.9751 42.8152 41.8377 43.2864C40.7002 43.7575 39.4811 44 38.25 44C37.0189 44 35.7998 43.7575 34.6623 43.2864C33.5249 42.8152 32.4914 42.1247 31.6209 41.2541C30.7503 40.3836 30.0598 39.3501 29.5886 38.2126C29.1175 37.0752 28.875 35.8561 28.875 34.625C28.875 33.3939 29.1175 32.1748 29.5886 31.0373C30.0598 29.8999 30.7503 28.8664 31.6209 27.9959C32.4914 27.1253 33.5249 26.4348 34.6623 25.9636C35.7998 25.4925 37.0189 25.25 38.25 25.25C39.4811 25.25 40.7002 25.4925 41.8377 25.9636C42.9751 26.4348 44.0086 27.1253 44.8791 27.9959C45.7497 28.8664 46.4402 29.8999 46.9114 31.0373C47.3825 32.1748 47.625 33.3939 47.625 34.625Z" fill="#C0392B"/>
<path d="M38.25 6.5C34.7981 6.5 32 9.29812 32 12.75V31.5C32 34.9519 34.7981 37.75 38.25 37.75C41.7019 37.75 44.5 34.9519 44.5 31.5V12.75C44.5 9.29812 41.7019 6.5 38.25 6.5Z" fill="#BDC3C7"/>
<path d="M122.625 34.625C122.625 35.8561 122.383 37.0752 121.911 38.2126C121.44 39.3501 120.75 40.3836 119.879 41.2541C119.009 42.1247 117.975 42.8152 116.838 43.2864C115.7 43.7575 114.481 44 113.25 44C112.019 44 110.8 43.7575 109.662 43.2864C108.525 42.8152 107.491 42.1247 106.621 41.2541C105.75 40.3836 105.06 39.3501 104.589 38.2126C104.117 37.0752 103.875 35.8561 103.875 34.625C103.875 33.3939 104.117 32.1748 104.589 31.0373C105.06 29.8999 105.75 28.8664 106.621 27.9959C107.491 27.1253 108.525 26.4348 109.662 25.9636C110.8 25.4925 112.019 25.25 113.25 25.25C114.481 25.25 115.7 25.4925 116.838 25.9636C117.975 26.4348 119.009 27.1253 119.879 27.9959C120.75 28.8664 121.44 29.8999 121.911 31.0373C122.383 32.1748 122.625 33.3939 122.625 34.625Z" fill="#C0392B"/>
<path d="M113.25 6.5C109.8 6.5 107 9 107 12.75V31.5C107 34.625 109.8 37.75 113.25 37.75C116.7 37.75 119.5 34.625 119.5 31.5V12.75C119.5 9 116.7 6.5 113.25 6.5Z" fill="#BDC3C7"/>
<path d="M32 69V81.5H44.5V69H32ZM50.75 69V81.5H63.25V69H50.75ZM69.5 69V81.5H82V69H69.5ZM88.25 69V81.5H100.75V69H88.25ZM107 69V81.5H119.5V69H107Z" fill="#BDC3C7"/>
<path d="M32 87.75V100.25H44.5V87.75H32ZM50.75 87.75V100.25H63.25V87.75H50.75ZM69.5 87.75V100.25H82V87.75H69.5ZM88.25 87.75V100.25H100.75V87.75H88.25ZM107 87.75V100.25H119.5V87.75H107Z" fill="#BDC3C7"/>
<path d="M32 106.5V119H44.5V106.5H32ZM50.75 106.5V119H63.25V106.5H50.75ZM69.5 106.5V119H82V106.5H69.5ZM88.25 106.5V119H100.75V106.5H88.25ZM107 106.5V119H119.5V106.5H107Z" fill="#BDC3C7"/>
<path d="M147.311 116.177C147.311 124.381 144.051 132.25 138.25 138.051C132.449 143.852 124.581 147.111 116.376 147.111C108.172 147.111 100.304 143.852 94.5027 138.051C88.7014 132.25 85.4423 124.381 85.4423 116.177C85.4423 107.973 88.7014 100.105 94.5027 94.3033C100.304 88.502 108.172 85.2429 116.376 85.2429C124.581 85.2429 132.449 88.502 138.25 94.3033C144.051 100.105 147.311 107.973 147.311 116.177Z" fill="#34495E"/>
<path d="M116.375 87.75C114.65 87.75 113.25 89.15 113.25 90.875V94V112.75V115.875C113.25 117.6 114.65 119 116.375 119H119.5H132H135.125C136.85 119 138.25 117.6 138.25 115.875C138.25 114.15 136.85 112.75 135.125 112.75H132H119.5V94V90.875C119.5 89.15 118.1 87.75 116.375 87.75Z" fill="#BDC3C7"/>
<path d="M116.375 81.5C97.3875 81.5 82 96.5 82 115.875C82 134.625 97.3875 150.25 116.375 150.25C135.362 150.25 150.75 134.625 150.75 115.875C150.75 96.5 135.362 81.5 116.375 81.5ZM116.375 87.75C131.906 87.75 144.5 100.25 144.5 115.875C144.5 130.875 131.906 144 116.375 144C100.844 144 88.25 130.875 88.25 115.875C88.25 100.25 100.844 87.75 116.375 87.75Z" fill="#7F8C8D"/>
<path d="M119.5 115.875C119.5 117.6 118.1 119 116.375 119C114.65 119 113.25 117.6 113.25 115.875C113.25 114.15 114.65 112.75 116.375 112.75C118.1 112.75 119.5 114.15 119.5 115.875Z" fill="#95A5A6"/>
</g>
<defs>
<clipPath id="clip0_373:143">
<rect width="150" height="150" fill="white" transform="translate(0.75 0.25)"/>
</clipPath>
</defs>
</svg>
