<svg width="151" height="150" viewBox="0 0 151 150" fill="none" xmlns="http://www.w3.org/2000/svg">
<g clip-path="url(#clip0_373:160)">
<path d="M137.75 12.5C144.656 12.5 150.25 18.125 150.25 25V43.75V56.25V75C150.25 81.875 144.656 87.5 137.75 87.5V112.5L107.281 87.5H94H56.5C49.5962 87.5 44 81.875 44 75V56.25V43.75V25C44 18.125 49.5962 12.5 56.5 12.5H94H100.25H137.75Z" fill="#7F8C8D"/>
<path d="M137.75 6.25C144.656 6.25 150.25 11.875 150.25 18.75V37.5V50V68.75C150.25 75.625 144.656 81.25 137.75 81.25V106.25L107.281 81.25H94H56.5C49.5962 81.25 44 75.625 44 68.75V50V37.5V18.75C44 11.875 49.5962 6.25 56.5 6.25H94H100.25H137.75Z" fill="#95A5A6"/>
<path d="M12.75 50C5.84625 50 0.25 55.625 0.25 62.5V81.25V93.75V112.5C0.25 119.375 5.84644 125 12.75 125V150L43.2187 125H56.5H94C100.906 125 106.5 119.375 106.5 112.5V93.75V81.25V62.5C106.5 55.625 100.906 50 94 50H56.5H50.25H12.75Z" fill="#BDC3C7"/>
<path d="M12.75 43.75C5.84625 43.75 0.25 49.375 0.25 56.25V75V87.5V106.25C0.25 113.125 5.84644 118.75 12.75 118.75V143.75L43.2187 118.75H56.5H94C100.906 118.75 106.5 113.125 106.5 106.25V87.5V75V56.25C106.5 49.375 100.906 43.75 94 43.75H56.5H50.25H12.75Z" fill="#ECF0F1"/>
</g>
<defs>
<clipPath id="clip0_373:160">
<rect width="150" height="150" fill="white" transform="translate(0.25)"/>
</clipPath>
</defs>
</svg>
